<?xml version="1.0" standalone="no"?>
<!DOCTYPE svg PUBLIC "-//W3C//DTD SVG 20010904//EN"
 "http://www.w3.org/TR/2001/REC-SVG-20010904/DTD/svg10.dtd">
<svg version="1.0" xmlns="http://www.w3.org/2000/svg"
 width="900.000000pt" height="600.000000pt" viewBox="0 0 900.000000 600.000000"
 preserveAspectRatio="xMidYMid meet">

<g transform="translate(0.000000,600.000000) scale(0.100000,-0.100000)"
fill="#000000" stroke="none">
<path d="M2421 5780 c-49 -12 -112 -61 -146 -115 l-30 -48 -3 -2433 -2 -2432
-113 -4 c-106 -3 -117 -5 -163 -33 -30 -19 -60 -49 -79 -79 -27 -45 -30 -57
-30 -135 0 -78 3 -90 29 -132 32 -50 75 -84 133 -105 31 -11 354 -13 1844 -14
2027 0 1874 -6 1953 74 100 99 100 264 0 355 -60 57 -82 64 -209 70 l-110 6 0
740 0 740 48 -2 c61 -4 113 -31 161 -83 51 -57 63 -89 71 -195 12 -158 49
-261 139 -382 144 -197 418 -293 669 -237 242 55 426 235 494 484 17 60 18
137 18 1085 0 1019 0 1020 -21 1065 -26 54 -110 144 -126 134 -6 -4 -8 -3 -5
3 8 13 -27 46 -38 36 -4 -5 -5 -2 -1 5 10 17 -13 44 -31 38 -8 -3 -12 -2 -9 3
8 12 -29 43 -39 34 -4 -5 -5 -2 -1 5 8 13 -92 114 -106 106 -3 -2 -10 1 -14 7
-4 8 -3 9 4 5 7 -4 12 -3 12 2 0 11 -71 67 -85 67 -5 0 -10 7 -10 15 0 22
-222 238 -270 263 -56 30 -164 30 -220 0 -90 -48 -138 -128 -138 -228 0 -61
34 -152 52 -141 4 3 19 -7 32 -22 l24 -27 -27 24 c-16 14 -28 20 -28 15 0 -5
121 -130 270 -279 l270 -270 0 -912 c1 -986 3 -940 -52 -989 -75 -69 -167 -57
-232 29 -23 30 -28 50 -36 138 -5 60 -20 139 -34 184 -28 87 -96 211 -114 208
-6 -2 -9 3 -7 10 8 19 -102 127 -180 178 -116 77 -279 129 -401 129 l-44 0 0
1435 c0 1301 -2 1439 -16 1468 -23 45 -72 95 -119 120 l-40 22 -1430 2 c-786
0 -1445 -3 -1464 -7z m2579 -1205 l0 -715 -245 0 c-225 0 -246 1 -252 18 -3 9
-23 55 -45 102 -34 71 -55 99 -130 173 l-89 88 114 177 c158 246 167 263 167
308 0 84 -63 148 -145 146 -89 -1 -94 -8 -348 -408 l-77 -121 -112 -5 c-131
-6 -235 -38 -334 -104 -110 -73 -219 -209 -261 -326 l-17 -48 -243 0 -243 0 0
715 0 715 1130 0 1130 0 0 -715z m1801 -322 c13 -16 12 -17 -3 -4 -10 7 -18
15 -18 17 0 8 8 3 21 -13z m-3301 -48 c0 -2 -10 -9 -22 -15 -22 -11 -22 -10
-4 4 21 17 26 19 26 11z m2991 -312 c13 -16 12 -17 -3 -4 -10 7 -18 15 -18 17
0 8 8 3 21 -13z m50 -50 c13 -16 12 -17 -3 -4 -10 7 -18 15 -18 17 0 8 8 3 21
-13z m-2640 -641 c14 -26 168 -283 342 -571 l317 -525 -35 -20 c-93 -56 -137
-83 -220 -131 -49 -29 -158 -94 -241 -144 -84 -50 -163 -96 -177 -102 -28 -12
-10 -21 -297 148 -41 25 -82 49 -90 53 -8 5 -84 50 -168 100 -111 66 -152 96
-148 106 3 8 51 90 107 182 56 92 113 187 127 212 14 25 38 64 53 87 16 23 29
44 29 47 0 3 33 59 73 123 40 65 121 200 181 301 60 100 112 182 115 182 3 0
18 -22 32 -48z m2049 -617 c0 -2 -6 -5 -13 -8 -8 -3 -14 1 -14 8 0 7 6 11 14
8 7 -3 13 -6 13 -8z m-2690 -661 c335 -200 350 -208 334 -182 -4 7 -3 8 5 4 6
-4 9 -11 6 -16 -8 -12 53 -43 67 -34 6 4 8 3 4 -4 -4 -6 13 -22 41 -39 95 -55
108 -63 130 -74 23 -12 42 -2 368 191 77 46 178 105 225 132 47 28 91 55 98
60 31 26 18 -4 -28 -68 -28 -38 -48 -75 -45 -82 3 -7 1 -11 -4 -8 -9 6 -32
-24 -144 -181 -27 -38 -85 -120 -130 -183 -45 -63 -136 -191 -201 -283 l-118
-168 -62 88 c-34 48 -184 259 -333 469 -149 209 -279 394 -289 410 l-19 29 25
-17 c14 -10 45 -29 70 -44z m3650 -388 c0 -2 -8 -10 -17 -17 -16 -13 -17 -12
-4 4 13 16 21 21 21 13z"/>
</g>
</svg>
